<?xml version="1.0"?>
<svg xmlns="http://www.w3.org/2000/svg" xmlns:xlink="http://www.w3.org/1999/xlink" xmlns:svgjs="http://svgjs.com/svgjs" version="1.1" width="512" height="512" x="0" y="0" viewBox="0 0 411 410" style="enable-background:new 0 0 512 512" xml:space="preserve" class=""><g><path xmlns="http://www.w3.org/2000/svg" d="m211.898438 199.5 17.601562-52.699219 35.101562 35.097657zm65.703124-24.398438-41.300781-41.300781 133.398438-133.300781 41.300781 41.300781zm0 0" fill="#30475e" data-original="#000000" style="" class=""/><path xmlns="http://www.w3.org/2000/svg" d="m353.199219 170.5c-1.859375-.011719-3.644531.722656-4.960938 2.039062-1.316406 1.3125-2.050781 3.101563-2.039062 4.960938v186.898438c-.015625 18.21875-14.78125 32.984374-33 33h-266.199219c-18.21875-.015626-32.980469-14.78125-33-33v-266.199219c.019531-18.21875 14.78125-32.980469 33-33h186.898438c3.867187 0 7-3.132813 7-7 0-3.863281-3.132813-7-7-7h-186.898438c-25.941406.042969-46.9609375 21.058593-47 47v266.199219c.0390625 25.941406 21.058594 46.960937 47 47h266.199219c25.941406-.039063 46.960937-21.058594 47-47v-186.898438c-.011719-3.863281-3.136719-6.988281-7-7zm0 0" fill="#30475e" data-original="#000000" style="" class=""/></g></svg>
