<?xml version="1.0"?>
<svg xmlns="http://www.w3.org/2000/svg" xmlns:xlink="http://www.w3.org/1999/xlink" xmlns:svgjs="http://svgjs.com/svgjs" version="1.1" width="512" height="512" x="0" y="0" viewBox="0 0 512.002 512.002" style="enable-background:new 0 0 512 512" xml:space="preserve" class=""><g><g xmlns="http://www.w3.org/2000/svg"><g><path d="m442.002 45h-18.501v-12.5c0-17.92-14.579-32.5-32.5-32.5s-32.5 14.579-32.5 32.5v12.5h-.001-24.999v-12.5c0-17.92-14.579-32.5-32.5-32.5s-32.5 14.579-32.5 32.5v12.5h-.001-24.999v-12.5c0-17.92-14.58-32.5-32.5-32.5s-32.5 14.579-32.5 32.5v12.5h-24.999v-12.5c0-17.92-14.58-32.5-32.5-32.5s-32.5 14.579-32.5 32.5v12.5h-18.502c-38.598 0-70 31.402-70 70v327.002c0 38.598 31.402 70 70 70h372.002c38.598 0 69.999-31.402 69.999-70v-327.002c0-38.598-31.401-70-69.999-70zm-63.501-12.5c0-6.892 5.607-12.5 12.5-12.5s12.5 5.607 12.5 12.5v45c0 6.893-5.607 12.5-12.5 12.5s-12.5-5.607-12.5-12.5zm-90 0c0-6.892 5.607-12.5 12.5-12.5s12.5 5.607 12.5 12.5v45c0 6.893-5.607 12.5-12.5 12.5s-12.5-5.607-12.5-12.5zm-90 0c0-6.892 5.607-12.5 12.5-12.5s12.5 5.607 12.5 12.5v45c0 6.893-5.607 12.5-12.5 12.5s-12.5-5.607-12.5-12.5zm-90 0c0-6.892 5.607-12.5 12.5-12.5s12.5 5.607 12.5 12.5v45c0 6.893-5.607 12.5-12.5 12.5s-12.5-5.607-12.5-12.5zm383.5 409.502c0 27.57-22.43 50-49.999 50h-372.002c-27.57 0-50-22.43-50-50v-327.002c0-27.57 22.43-50 50-50h18.5v12.5c0 17.92 14.58 32.5 32.5 32.5s32.5-14.58 32.5-32.5v-12.5h25v12.5c0 17.92 14.58 32.5 32.5 32.5s32.5-14.58 32.5-32.5v-12.5h25 .001v12.5c0 17.92 14.579 32.5 32.5 32.5s32.5-14.58 32.5-32.5v-12.5h24.999.001v12.5c0 17.92 14.579 32.5 32.5 32.5s32.5-14.58 32.5-32.5v-12.5h18.501c27.569 0 49.999 22.43 49.999 50z" fill="#7c7c7c" data-original="#000000" style=""/><path d="m442.002 135h-231.001c-5.523 0-10 4.477-10 10s4.477 10 10 10h231.001c2.617 0 5 2.383 5 5v282.002c0 2.617-2.383 5-5 5h-372.002c-2.617 0-5-2.383-5-5v-282.002c0-2.617 2.383-5 5-5h51.001c5.523 0 10-4.477 10-10s-4.477-10-10-10h-51.001c-13.785 0-25 11.215-25 25v282.002c0 13.785 11.215 25 25 25h372.002c13.785 0 25-11.215 25-25v-282.002c0-13.786-11.214-25-25-25z" fill="#7c7c7c" data-original="#000000" style=""/><path d="m163.272 278.295c-2.148 6.486-.56 13.593 4.137 18.542l29.719 31.375-5.872 41.483c-1.017 6.802 1.768 13.562 7.269 17.644 3.254 2.415 7.122 3.652 11.021 3.652 2.689 0 5.394-.589 7.92-1.787l39.084-18.598 37.332 18.253c6.083 3.198 13.365 2.766 19.067-1.147 5.75-3.946 8.762-10.696 7.859-17.617l-5.604-42.871 29.237-30.218c4.764-4.886 6.432-11.985 4.353-18.525-2.067-6.506-7.529-11.319-14.239-12.559l-42.474-7.912-19.701-37.142c-3.171-6.036-9.394-9.817-16.24-9.868-6.842-.042-13.103 3.642-16.368 9.639l-20.654 37.957-41.469 7.271c-6.714 1.166-12.224 5.928-14.377 12.428zm64.053-.832c3.002-.526 5.6-2.393 7.057-5.07l21.618-39.728 20.676 38.979c1.428 2.692 4.006 4.586 7.003 5.145l44.48 8.286-30.681 31.709c-2.119 2.19-3.124 5.228-2.729 8.25l5.863 44.854-39.61-19.367c-2.737-1.338-5.937-1.355-8.689-.046l-40.89 19.458 6.184-43.694c.427-3.018-.545-6.065-2.641-8.278l-31.136-32.871z" fill="#7c7c7c" data-original="#000000" style=""/><path d="m166.004 155c5.523 0 10-4.477 10-10s-4.477-10-10-10h-.007c-5.523 0-9.996 4.477-9.996 10s4.48 10 10.003 10z" fill="#7c7c7c" data-original="#000000" style=""/></g></g></g></svg>
